<svg width="24" height="24" viewBox="0 0 24 24" fill="none" xmlns="http://www.w3.org/2000/svg">
<g clip-path="url(#clip0_3993_2024)">
<path d="M19.1164 0.0136719H4.88358C2.15508 0.201828 0 2.47442 0 5.25073V8.00506H24V5.25073C24 2.47442 21.8449 0.201828 19.1164 0.0136719Z" fill="#FAB446"/>
<path d="M0 18.7504C0 21.5267 2.15512 23.7994 4.88363 23.9875H19.1164C21.8449 23.7994 24 21.5267 24 18.7504V15.9961H0V18.7504Z" fill="#73AF00"/>
<path d="M24 8.00391H0V15.9952H24V8.00391Z" fill="#F5F5F5"/>
<path d="M11.9995 14.7393C10.4888 14.7393 9.25977 13.5103 9.25977 11.9995C9.25977 10.4888 10.4888 9.25977 11.9995 9.25977C13.5103 9.25977 14.7393 10.4888 14.7393 11.9995C14.7393 13.5103 13.5103 14.7393 11.9995 14.7393ZM11.9995 9.76948C10.7697 9.76948 9.76948 10.7697 9.76948 11.9995C9.76948 13.2293 10.7697 14.2295 11.9995 14.2295C13.2293 14.2295 14.2295 13.2293 14.2295 11.9995C14.2295 10.7697 13.2293 9.76948 11.9995 9.76948Z" fill="#41479B"/>
<path d="M11.9981 12.3106C12.1696 12.3106 12.3087 12.1716 12.3087 12C12.3087 11.8285 12.1696 11.6895 11.9981 11.6895C11.8266 11.6895 11.6875 11.8285 11.6875 12C11.6875 12.1716 11.8266 12.3106 11.9981 12.3106Z" fill="#41479B"/>
<path d="M11.9986 12.0459L11.2092 12.1256L9.51367 12.0459V11.9527L11.2092 11.873L11.9986 11.9527V12.0459Z" fill="#41479B"/>
<path d="M12 12.0459L12.7893 12.1256L14.4849 12.0459V11.9527L12.7893 11.873L12 11.9527V12.0459Z" fill="#41479B"/>
<path d="M11.9527 11.9986L11.873 11.2092L11.9527 9.51367H12.0459L12.1256 11.2092L12.0459 11.9986H11.9527Z" fill="#41479B"/>
<path d="M11.9527 12L11.873 12.7893L11.9527 14.4849H12.0459L12.1256 12.7893L12.0459 12H11.9527Z" fill="#41479B"/>
<path d="M11.968 12.032L11.3535 11.5302L10.2109 10.2748L10.2768 10.209L11.5321 11.3516L12.0339 11.966L11.968 12.032Z" fill="#41479B"/>
<path d="M11.9668 12.0327L12.4686 12.6472L13.7239 13.7898L13.7898 13.7239L12.6472 12.4686L12.0327 11.9668L11.9668 12.0327Z" fill="#41479B"/>
<path d="M11.9668 11.966L12.4686 11.3516L13.7239 10.209L13.7898 10.2748L12.6472 11.5302L12.0327 12.032L11.9668 11.966Z" fill="#41479B"/>
<path d="M11.968 11.9668L11.3535 12.4686L10.2109 13.7239L10.2768 13.7898L11.5321 12.6472L12.0339 12.0327L11.968 11.9668Z" fill="#41479B"/>
<path d="M12.0169 12.0431L11.3182 12.4188L9.72117 12.994L9.68555 12.9079L11.2215 12.1855L11.9813 11.957L12.0169 12.0431Z" fill="#41479B"/>
<path d="M12.0161 12.0429L12.7758 11.8145L14.3118 11.092L14.2762 11.0059L12.6792 11.5811L11.9805 11.9568L12.0161 12.0429Z" fill="#41479B"/>
<path d="M11.9568 12.0169L11.5811 11.3182L11.0059 9.72117L11.092 9.68555L11.8145 11.2215L12.0429 11.9813L11.9568 12.0169Z" fill="#41479B"/>
<path d="M11.957 12.018L12.1855 12.7778L12.9079 14.3138L12.994 14.2782L12.4188 12.6811L12.0431 11.9824L11.957 12.018Z" fill="#41479B"/>
<path d="M11.9813 12.0429L11.2215 11.8145L9.68555 11.092L9.72117 11.0059L11.3182 11.5811L12.0169 11.9568L11.9813 12.0429Z" fill="#41479B"/>
<path d="M11.9805 12.0431L12.6792 12.4188L14.2762 12.994L14.3118 12.9079L12.7758 12.1855L12.0161 11.957L11.9805 12.0431Z" fill="#41479B"/>
<path d="M11.957 11.9813L12.1855 11.2215L12.9079 9.68555L12.994 9.72117L12.4188 11.3182L12.0431 12.0169L11.957 11.9813Z" fill="#41479B"/>
<path d="M11.9568 11.9824L11.5811 12.6811L11.0059 14.2782L11.092 14.3138L11.8145 12.7778L12.0429 12.018L11.9568 11.9824Z" fill="#41479B"/>
<path d="M12.0003 12.3405C12.1882 12.3405 12.3405 12.1882 12.3405 12.0003C12.3405 11.8125 12.1882 11.6602 12.0003 11.6602C11.8125 11.6602 11.6602 11.8125 11.6602 12.0003C11.6602 12.1882 11.8125 12.3405 12.0003 12.3405Z" fill="#F5F5F5"/>
<path d="M12.0012 12.2505C12.1399 12.2505 12.2524 12.138 12.2524 11.9992C12.2524 11.8605 12.1399 11.748 12.0012 11.748C11.8625 11.748 11.75 11.8605 11.75 11.9992C11.75 12.138 11.8625 12.2505 12.0012 12.2505Z" fill="#41479B"/>
</g>
<defs>
<clipPath id="clip0_3993_2024">
<rect width="24" height="24" rx="12" fill="white"/>
</clipPath>
</defs>
</svg>
