<svg width="24" height="24" viewBox="0 0 24 24" fill="none" xmlns="http://www.w3.org/2000/svg">
<g clip-path="url(#clip0_3993_1990)">
<path d="M18.75 0H5.25C2.3505 0 0 2.3505 0 5.25V18.75C0 21.6495 2.3505 24 5.25 24H18.75C21.6495 24 24 21.6495 24 18.75V5.25C24 2.3505 21.6495 0 18.75 0Z" fill="white"/>
<path d="M14.2976 8.55546C12.3963 7.28787 9.82811 7.80617 8.56136 9.70423C7.92597 10.6516 8.1842 11.9389 9.13487 12.5727C10.0848 13.2065 11.368 12.9492 12.0018 11.9984C12.6356 11.0478 13.9196 10.7936 14.8696 11.4241C15.821 12.0579 16.0769 13.3452 15.4422 14.2926C16.7098 12.3912 16.1974 9.82306 14.2976 8.55546Z" fill="#FF4B55"/>
<path d="M8.56055 9.70508C7.92516 10.6525 8.18339 11.9398 9.13406 12.5736C10.084 13.2074 11.3672 12.95 12.001 11.9993C12.6348 11.0486 13.9188 10.7944 14.8688 11.4249C15.8202 12.0587 16.0761 13.346 15.4414 14.2934C14.1756 16.1981 11.6082 16.7098 9.70683 15.4422C7.80713 14.1747 7.293 11.6065 8.56055 9.70508Z" fill="#41479B"/>
<path d="M16.4027 6.99465L17.1544 8.12438C17.2175 8.2193 17.192 8.34746 17.0972 8.41088L16.9067 8.53852C16.8115 8.60223 16.6828 8.57659 16.6194 8.48134L15.8668 7.35184C15.8035 7.25682 15.8291 7.12843 15.9241 7.06505L16.1156 6.93718C16.2108 6.87366 16.3394 6.89944 16.4027 6.99465Z" fill="#464655"/>
<path d="M17.5621 8.73653L18.3162 9.86561C18.3799 9.96095 18.3539 10.0899 18.2582 10.1531L18.0668 10.2797C17.9718 10.3424 17.844 10.3166 17.7807 10.222L17.0271 9.09414C16.9636 8.99912 16.9891 8.87068 17.0841 8.80717L17.2751 8.67948C17.3701 8.61592 17.4986 8.64147 17.5621 8.73653Z" fill="#464655"/>
<path d="M17.2068 6.45741L19.1207 9.32963C19.184 9.42469 19.1583 9.55313 19.0633 9.6165L18.871 9.7447C18.7759 9.80808 18.6474 9.78239 18.584 9.68733L16.6695 6.81535C16.6061 6.72024 16.6319 6.5917 16.727 6.52838L16.9199 6.39999C17.0151 6.33661 17.1435 6.36235 17.2068 6.45741Z" fill="#464655"/>
<path d="M18.0108 5.9204L18.7641 7.05238C18.8275 7.14772 18.8014 7.27644 18.7059 7.33963L18.5143 7.46624C18.4193 7.52905 18.2913 7.50322 18.2281 7.4084L17.4743 6.27791C17.4108 6.18285 17.4365 6.05436 17.5316 5.99099L17.7238 5.86293C17.8189 5.79946 17.9474 5.82524 18.0108 5.9204Z" fill="#464655"/>
<path d="M19.1717 7.66648L19.9239 8.79612C19.9871 8.89109 19.9615 9.01934 19.8666 9.08276L19.6756 9.21049C19.5805 9.2741 19.4518 9.24842 19.3884 9.15317L18.6363 8.02353C18.573 7.92856 18.5986 7.80031 18.6935 7.73689L18.8845 7.60915C18.9796 7.54554 19.1083 7.57123 19.1717 7.66648Z" fill="#464655"/>
<path d="M6.2211 13.7816L8.13472 16.6507C8.1981 16.7457 8.1725 16.8741 8.07749 16.9376L7.88582 17.0655C7.79075 17.129 7.66222 17.1034 7.5988 17.0083L5.68518 14.1391C5.6218 14.0441 5.64744 13.9157 5.74241 13.8523L5.93408 13.7243C6.02919 13.6608 6.15768 13.6865 6.2211 13.7816Z" fill="#464655"/>
<path d="M5.41829 14.3168L6.16956 15.4437C6.23284 15.5387 6.20734 15.6669 6.11251 15.7304L5.92192 15.858C5.8269 15.9216 5.69827 15.896 5.63476 15.8009L4.88251 14.6743C4.81904 14.5793 4.84468 14.4508 4.9397 14.3873L5.13123 14.2594C5.22634 14.196 5.35487 14.2217 5.41829 14.3168Z" fill="#464655"/>
<path d="M6.57858 16.061L7.33078 17.1907C7.39402 17.2857 7.36842 17.414 7.27355 17.4774L7.08239 17.6052C6.98728 17.6687 6.85866 17.6431 6.79523 17.5479L6.04256 16.4183C5.97923 16.3233 6.00487 16.195 6.09984 16.1315L6.29147 16.0036C6.38658 15.9401 6.5152 15.9658 6.57858 16.061Z" fill="#464655"/>
<path d="M4.6143 14.8539L6.52671 17.7231C6.59003 17.8181 6.56444 17.9465 6.46952 18.0099L6.27841 18.1376C6.18335 18.2012 6.05477 18.1755 5.9913 18.0804L4.07777 15.2115C4.01435 15.1165 4.04003 14.988 4.13514 14.9246L4.32738 14.7964C4.42244 14.7331 4.55092 14.7588 4.6143 14.8539Z" fill="#464655"/>
<path d="M5.6871 9.86401L7.60045 6.99259C7.66387 6.89743 7.7924 6.87174 7.88751 6.93526L8.07909 7.06318C8.1741 7.1266 8.1997 7.25504 8.13632 7.35005L6.22223 10.2198C6.15899 10.3147 6.03098 10.3405 5.93592 10.2776L5.74509 10.1513C5.64956 10.0881 5.62359 9.95935 5.6871 9.86401Z" fill="#464655"/>
<path d="M4.88241 9.32941L6.79613 6.45743C6.85955 6.36223 6.98817 6.33659 7.08328 6.40015L7.27439 6.52788C7.36927 6.5913 7.39486 6.7196 7.33158 6.81457L5.41837 9.68674C5.355 9.7819 5.22642 9.80763 5.13131 9.74412L4.93969 9.6162C4.84472 9.55282 4.81908 9.42443 4.88241 9.32941Z" fill="#464655"/>
<path d="M4.07768 8.79523L5.99154 5.92039C6.05497 5.82514 6.18364 5.79945 6.27875 5.86306L6.46986 5.99084C6.56469 6.05426 6.59033 6.18246 6.52714 6.27743L4.6144 9.15265C4.55108 9.24785 4.42254 9.27364 4.32739 9.21021L4.13515 9.08206C4.04009 9.01868 4.01436 8.89029 4.07768 8.79523Z" fill="#464655"/>
<path d="M15.8669 16.6503L16.6191 15.5237C16.6826 15.4286 16.8113 15.403 16.9063 15.4666L17.0969 15.5943C17.1918 15.6577 17.2173 15.786 17.154 15.881L16.4027 17.0078C16.3392 17.1029 16.2107 17.1286 16.1156 17.0652L15.9241 16.9373C15.8291 16.8738 15.8034 16.7454 15.8669 16.6503Z" fill="#464655"/>
<path d="M17.0269 14.914L17.7803 13.7817C17.8436 13.6865 17.9721 13.6608 18.0673 13.7242L18.2593 13.8522C18.3544 13.9156 18.3801 14.0442 18.3166 14.1393L17.5616 15.2697C17.4983 15.3645 17.3702 15.3902 17.2752 15.3273L17.0848 15.2011C16.9894 15.1378 16.9635 15.0092 17.0269 14.914Z" fill="#464655"/>
<path d="M16.6695 17.1886L17.4222 16.059C17.4856 15.9639 17.6141 15.9382 17.7092 16.0016L17.9016 16.1299C17.9966 16.1933 18.0223 16.3216 17.959 16.4167L17.2068 17.5464C17.1435 17.6415 17.015 17.6673 16.9199 17.604L16.727 17.4756C16.6319 17.4122 16.6061 17.2838 16.6695 17.1886Z" fill="#464655"/>
<path d="M17.8318 15.4435L18.5849 14.3166C18.6483 14.2216 18.7767 14.196 18.8716 14.2594L19.0639 14.3875C19.159 14.451 19.1847 14.5795 19.1211 14.6746L18.3681 15.8016C18.3046 15.8965 18.1763 15.9221 18.0813 15.8588L17.889 15.7306C17.7939 15.6672 17.7682 15.5386 17.8318 15.4435Z" fill="#464655"/>
<path d="M17.4724 17.7235L18.2259 16.5959C18.2891 16.5012 18.417 16.4755 18.512 16.5382L18.7036 16.6648C18.7992 16.728 18.8252 16.8569 18.7616 16.9522L18.0087 18.0813C17.9453 18.1764 17.8169 18.2021 17.7218 18.1387L17.5296 18.0107C17.4345 17.9472 17.4089 17.8186 17.4724 17.7235Z" fill="#464655"/>
<path d="M18.6362 15.983L19.3879 14.854C19.4513 14.7587 19.58 14.733 19.6751 14.7967L19.866 14.9242C19.9609 14.9877 19.9865 15.1161 19.9231 15.2111L19.1708 16.3386C19.1076 16.4334 18.9795 16.4592 18.8844 16.3962L18.6942 16.27C18.5988 16.2069 18.5729 16.0782 18.6362 15.983Z" fill="#464655"/>
</g>
<defs>
<clipPath id="clip0_3993_1990">
<rect width="24" height="24" rx="12" fill="white"/>
</clipPath>
</defs>
</svg>
