<svg width="24" height="24" viewBox="0 0 24 24" fill="none" xmlns="http://www.w3.org/2000/svg">
<g clip-path="url(#clip0_3993_1861)">
<path d="M18.75 0H5.25C2.3505 0 0 2.3505 0 5.25V18.75C0 21.6495 2.3505 24 5.25 24H18.75C21.6495 24 24 21.6495 24 18.75V5.25C24 2.3505 21.6495 0 18.75 0Z" fill="#82C3D2"/>
<path d="M2.56166 22.3943C2.50494 22.2243 2.28472 21.7681 2.27741 21.7529C2.21704 21.6172 2.18525 21.4672 2.18525 21.3189C2.18525 21.1115 2.30558 20.93 2.47794 20.8773C2.6181 20.834 2.76233 20.8574 2.87422 20.9401C2.98583 21.0225 3.04986 21.1495 3.04986 21.2879C3.04986 21.4613 2.93868 21.5187 2.89086 21.5354C2.81685 21.5612 2.74607 21.5463 2.72324 21.5174C2.70397 21.4929 2.70594 21.4259 2.77504 21.3172C2.81783 21.2503 2.79824 21.161 2.73111 21.1183C2.66385 21.076 2.57507 21.0958 2.53213 21.1625C2.34805 21.451 2.4463 21.6316 2.49707 21.6961C2.59949 21.8253 2.79046 21.8697 2.97463 21.8097C2.91411 22.0664 2.85838 22.309 3.092 22.5427C3.12013 22.5708 3.15702 22.5849 3.19391 22.5849C3.23075 22.5849 3.26764 22.5708 3.29582 22.5427C3.35211 22.4864 3.35211 22.3952 3.29582 22.3389C3.18041 22.2235 3.19546 22.1287 3.25625 21.8714C3.29272 21.7172 3.338 21.525 3.338 21.288C3.338 21.0622 3.22977 20.8471 3.04888 20.7116C3.22977 20.5761 3.338 20.361 3.338 20.1352C3.338 19.8982 3.29268 19.706 3.25625 19.5517C3.19546 19.2944 3.18041 19.1996 3.29582 19.0842C3.35211 19.0279 3.35211 18.9367 3.29582 18.8805C3.23952 18.8242 3.14835 18.8242 3.09205 18.8805C2.85838 19.1141 2.91411 19.3567 2.97468 19.6134C2.7905 19.5532 2.59954 19.5976 2.49711 19.7271C2.4463 19.7915 2.3481 19.9722 2.53218 20.2607C2.57497 20.3277 2.66347 20.3474 2.73116 20.3049C2.79829 20.2621 2.81783 20.1729 2.77508 20.1059C2.70599 19.9972 2.70402 19.9303 2.72329 19.9058C2.74607 19.8768 2.81685 19.8619 2.89091 19.8878C2.93877 19.9044 3.04991 19.9618 3.04991 20.1352C3.04991 20.2737 2.98588 20.4006 2.87427 20.4831C2.76238 20.5658 2.61758 20.5895 2.47799 20.5458C2.30558 20.4932 2.1853 20.3116 2.1853 20.1042C2.1853 19.9559 2.21708 19.8059 2.27746 19.6702L3.22114 17.547C3.29868 17.3724 3.3381 17.187 3.3381 16.9959C3.3381 16.75 3.2263 16.5255 3.05038 16.3885C3.2263 16.2515 3.3381 16.027 3.3381 15.7812C3.3381 15.5901 3.29868 15.4046 3.22114 15.2301L2.27746 13.1069C2.21708 12.9712 2.1853 12.8212 2.1853 12.6729C2.1853 12.4655 2.30563 12.2839 2.47799 12.2313C2.61814 12.1879 2.76238 12.2113 2.87427 12.294C2.98588 12.3765 3.04991 12.5034 3.04991 12.6419C3.04991 12.8152 2.93872 12.8727 2.89091 12.8893C2.81689 12.9155 2.74611 12.9003 2.72329 12.8713C2.70402 12.8468 2.70599 12.7799 2.77508 12.6712C2.81788 12.6042 2.79829 12.515 2.73116 12.4722C2.66389 12.43 2.57511 12.4497 2.53218 12.5164C2.3481 12.8049 2.44635 12.9856 2.49711 13.05C2.59954 13.1792 2.7905 13.2236 2.97468 13.1637C2.91416 13.4204 2.85843 13.6629 3.09205 13.8966C3.12018 13.9248 3.15707 13.9388 3.19396 13.9388C3.2308 13.9388 3.26769 13.9248 3.29586 13.8966C3.35216 13.8403 3.35216 13.7491 3.29586 13.6928C3.18046 13.5774 3.1955 13.4826 3.2563 13.2254C3.29277 13.0711 3.33805 12.8789 3.33805 12.6419C3.33805 12.4842 3.2826 12.3334 3.18932 12.2096H3.19396C3.2736 12.2096 3.33805 12.1451 3.33805 12.0655C3.33805 11.9858 3.2736 11.9214 3.19396 11.9214H3.18932C3.2826 11.7975 3.33805 11.6468 3.33805 11.4891C3.33805 11.2521 3.29272 11.0599 3.2563 10.9056C3.1955 10.6484 3.18046 10.5535 3.29586 10.4381C3.35216 10.3818 3.35216 10.2907 3.29586 10.2344C3.23957 10.1781 3.14839 10.1781 3.0921 10.2344C2.85843 10.468 2.91416 10.7107 2.97472 10.9673C2.79055 10.9074 2.59958 10.9518 2.49716 11.081C2.44635 11.1454 2.34814 11.3261 2.53222 11.6146C2.57502 11.6816 2.66352 11.701 2.73121 11.6588C2.79833 11.616 2.81788 11.5268 2.77513 11.4598C2.70604 11.3512 2.70407 11.2842 2.72333 11.2597C2.74611 11.2307 2.81689 11.2158 2.89096 11.2417C2.93882 11.2583 3.04996 11.3157 3.04996 11.4891C3.04996 11.6276 2.98593 11.7545 2.87432 11.837C2.76243 11.9197 2.61763 11.9431 2.47804 11.8997C2.30563 11.8471 2.18535 11.6655 2.18535 11.4581C2.18535 11.3098 2.21713 11.1598 2.2775 11.0242L3.22119 8.9009C3.29872 8.72639 3.33814 8.54095 3.33814 8.34984C3.33814 8.10398 3.22635 7.87945 3.05043 7.74248C3.22635 7.60547 3.33814 7.38094 3.33814 7.13512C3.33814 6.94401 3.29872 6.75853 3.22119 6.58406L2.27736 4.46062C2.21699 4.32497 2.18521 4.17497 2.18521 4.02661C2.18521 3.81919 2.30554 3.63764 2.47789 3.585C2.61805 3.54164 2.76228 3.56503 2.87418 3.64776C2.98579 3.73022 3.04982 3.85715 3.04982 3.99562C3.04982 4.16901 2.93863 4.22644 2.89082 4.24303C2.8168 4.2689 2.74602 4.25372 2.72319 4.22503C2.70393 4.20056 2.70589 4.13358 2.77499 4.02492C2.81779 3.95794 2.79819 3.86873 2.73107 3.82594C2.6638 3.7837 2.57502 3.80315 2.53208 3.87014C2.348 4.15861 2.44625 4.33931 2.49702 4.40376C2.59944 4.53295 2.79041 4.57734 2.97458 4.51739C2.91407 4.77408 2.85833 5.0167 3.09196 5.25037C3.12008 5.2785 3.15697 5.29261 3.19386 5.29261C3.23071 5.29261 3.2676 5.27854 3.29577 5.25037C3.35207 5.19408 3.35207 5.1029 3.29577 5.04661C3.18036 4.9312 3.19541 4.83637 3.25621 4.57912C3.29268 4.4249 3.33796 4.23267 3.33796 3.99567C3.33796 3.83794 3.2825 3.68719 3.18922 3.56334H3.19386C3.2735 3.56334 3.33796 3.49889 3.33796 3.41925C3.33796 3.33961 3.2735 3.27515 3.19386 3.27515H3.18922C3.2825 3.15131 3.33796 3.00056 3.33796 2.84287C3.33796 2.60587 3.29263 2.41364 3.25621 2.25942C3.19541 2.00217 3.18036 1.90734 3.29577 1.79194C3.35207 1.73564 3.35207 1.64447 3.29577 1.58817C3.23947 1.53187 3.1483 1.53187 3.092 1.58817C2.85833 1.82184 2.91407 2.06442 2.97463 2.32115C2.79046 2.26097 2.59949 2.30559 2.49707 2.43478C2.44625 2.49923 2.34805 2.67994 2.53213 2.9684C2.57493 3.03539 2.66343 3.05508 2.73111 3.01261C2.79824 2.96981 2.81779 2.88061 2.77504 2.81362C2.70594 2.70497 2.70397 2.63798 2.72324 2.61351C2.74602 2.58454 2.8168 2.56931 2.89086 2.59551C2.93872 2.61211 3.04986 2.66953 3.04986 2.84292C3.04986 2.98139 2.98583 3.10833 2.87422 3.19078C2.76233 3.27351 2.61753 3.2969 2.47794 3.25354C2.30554 3.2009 2.18525 3.01936 2.18525 2.81194C2.18525 2.66362 2.21704 2.51362 2.27544 2.38219C2.28472 2.36278 2.50499 1.90654 2.56166 1.73653C2.67383 1.4002 2.55983 1.23103 2.48202 1.16039C2.37786 1.06556 2.22575 1.04189 2.09474 1.09931C2.07486 1.10812 2.05841 1.12092 2.04111 1.13283C2.03258 1.12697 2.02419 1.12083 2.01557 1.11511C1.82774 1.26225 1.65041 1.42204 1.48438 1.59295C1.49188 1.63715 1.50327 1.68459 1.52057 1.73653C1.57729 1.9065 1.7975 2.36273 1.80482 2.37797C1.86519 2.51362 1.89697 2.66362 1.89697 2.81198C1.89697 3.0194 1.77664 3.20095 1.60429 3.25359C1.46427 3.29695 1.31989 3.27384 1.208 3.19083C1.09639 3.10837 1.03236 2.98144 1.03236 2.84297C1.03236 2.66958 1.14355 2.61215 1.19136 2.59556C1.26566 2.5694 1.33602 2.58459 1.35899 2.61356C1.37825 2.63803 1.37629 2.70501 1.30719 2.81367C1.26439 2.88065 1.28399 2.96986 1.35111 3.01265C1.4188 3.05545 1.50758 3.03544 1.5501 2.96845C1.73418 2.67998 1.63593 2.49928 1.58516 2.43483C1.48274 2.30564 1.29177 2.26101 1.1076 2.3212C1.13671 2.19773 1.16436 2.07754 1.15958 1.96008C1.01989 2.13351 0.890895 2.31595 0.773848 2.5065C0.756738 2.60709 0.744176 2.71875 0.744176 2.84292C0.744176 3.00061 0.799582 3.1514 0.89291 3.2752H0.88827C0.808629 3.2752 0.744176 3.33965 0.744176 3.41929C0.744176 3.49894 0.808629 3.56339 0.88827 3.56339H0.89291C0.799629 3.68723 0.744176 3.83798 0.744176 3.99572C0.744176 4.23272 0.789504 4.42495 0.825926 4.57917C0.886723 4.83642 0.90177 4.93125 0.786363 5.04665C0.730066 5.10295 0.730066 5.19412 0.786363 5.25042C0.814488 5.27854 0.851379 5.29265 0.88827 5.29265C0.92516 5.29265 0.962004 5.27859 0.990176 5.25042C1.22385 5.01675 1.16811 4.77412 1.1076 4.51743C1.29177 4.57739 1.48274 4.533 1.58516 4.40381C1.63597 4.33936 1.73418 4.15865 1.5501 3.87019C1.50744 3.8032 1.41838 3.78323 1.35111 3.82598C1.28399 3.86878 1.26444 3.95798 1.30719 4.02497C1.37629 4.13362 1.37825 4.20061 1.35899 4.22508C1.33607 4.25381 1.26571 4.269 1.19136 4.24308C1.1435 4.22648 1.03236 4.16906 1.03236 3.99567C1.03236 3.8572 1.09639 3.73026 1.208 3.64781C1.31989 3.56508 1.46455 3.5414 1.60429 3.58504C1.77669 3.63769 1.89697 3.81919 1.89697 4.02665C1.89697 4.17497 1.86514 4.32501 1.80482 4.46067L0.861129 6.58387C0.783598 6.75839 0.744176 6.94383 0.744176 7.13493C0.744176 7.38079 0.855973 7.60533 1.03189 7.74229C0.855973 7.87931 0.744176 8.10379 0.744176 8.34965C0.744176 8.54076 0.783598 8.72625 0.861129 8.90072L1.80482 11.024C1.86519 11.1596 1.89697 11.3096 1.89697 11.4579C1.89697 11.6654 1.77664 11.8469 1.60429 11.8995C1.46427 11.9432 1.31989 11.9198 1.208 11.8368C1.09639 11.7543 1.03236 11.6274 1.03236 11.4889C1.03236 11.3155 1.14355 11.2581 1.19136 11.2415C1.26566 11.2156 1.33602 11.2305 1.35899 11.2595C1.37825 11.284 1.37629 11.351 1.30719 11.4596C1.26439 11.5266 1.28399 11.6158 1.35111 11.6586C1.4188 11.7014 1.50758 11.6817 1.5501 11.6144C1.73418 11.3259 1.63593 11.1452 1.58516 11.0808C1.48274 10.9516 1.29177 10.9072 1.1076 10.9672C1.16811 10.7105 1.22385 10.4678 0.990176 10.2342C0.933879 10.1779 0.842707 10.1779 0.78641 10.2342C0.730113 10.2905 0.730113 10.3816 0.78641 10.4379C0.901816 10.5533 0.88677 10.6482 0.825973 10.9054C0.789504 11.0596 0.744223 11.2519 0.744223 11.4889C0.744223 11.6466 0.799629 11.7974 0.892957 11.9212H0.888316C0.808676 11.9212 0.744223 11.9857 0.744223 12.0653C0.744223 12.1449 0.808676 12.2094 0.888316 12.2094H0.892957C0.799676 12.3332 0.744223 12.484 0.744223 12.6417C0.744223 12.8787 0.789551 13.0709 0.825973 13.2252C0.88677 13.4824 0.901816 13.5772 0.78641 13.6927C0.730113 13.749 0.730113 13.8401 0.78641 13.8964C0.814535 13.9246 0.851426 13.9387 0.888316 13.9387C0.925207 13.9387 0.962051 13.9246 0.990223 13.8964C1.22389 13.6627 1.16816 13.4201 1.10764 13.1635C1.29182 13.2234 1.48279 13.179 1.58521 13.0499C1.63602 12.9854 1.73422 12.8047 1.55014 12.5162C1.50749 12.4492 1.41843 12.4293 1.35116 12.472C1.28404 12.5148 1.26449 12.604 1.30724 12.671C1.37633 12.7797 1.3783 12.8467 1.35904 12.8711C1.33611 12.9001 1.26575 12.9153 1.19141 12.8891C1.14355 12.8725 1.03241 12.8151 1.03241 12.6417C1.03241 12.5032 1.09644 12.3763 1.20805 12.2939C1.31994 12.2111 1.4646 12.1875 1.60433 12.2311C1.77674 12.2837 1.89702 12.4653 1.89702 12.6727C1.89702 12.821 1.86519 12.9711 1.80486 13.1067L0.861176 15.2299C0.783645 15.4044 0.744223 15.5899 0.744223 15.781C0.744223 16.0268 0.85602 16.2514 1.03194 16.3883C0.85602 16.5254 0.744223 16.7498 0.744223 16.9957C0.744223 17.1868 0.783645 17.3723 0.861176 17.5468L1.80486 19.67C1.86524 19.8057 1.89702 19.9557 1.89702 20.104C1.89702 20.3115 1.77669 20.493 1.60433 20.5456C1.46432 20.5893 1.31994 20.5656 1.20805 20.4829C1.09644 20.4004 1.03241 20.2735 1.03241 20.135C1.03241 19.9617 1.1436 19.9042 1.19141 19.8876C1.26571 19.8617 1.33607 19.8766 1.35904 19.9056C1.3783 19.9301 1.37633 19.9971 1.30724 20.1057C1.26444 20.1727 1.28404 20.2619 1.35116 20.3047C1.41885 20.3475 1.50763 20.3278 1.55014 20.2605C1.73422 19.972 1.63597 19.7913 1.58521 19.7269C1.48279 19.5974 1.29182 19.5531 1.10764 19.6132C1.16816 19.3565 1.22389 19.1139 0.990223 18.8803C0.933926 18.824 0.842754 18.824 0.786457 18.8803C0.73016 18.9366 0.73016 19.0277 0.786457 19.084C0.901863 19.1994 0.886816 19.2943 0.82602 19.5515C0.789551 19.7057 0.74427 19.898 0.74427 20.135C0.74427 20.3608 0.852504 20.5759 1.03339 20.7114C0.852504 20.8469 0.74427 21.062 0.74427 21.2878C0.74427 21.3474 0.747129 21.4041 0.752004 21.4582C0.872754 21.6583 1.00663 21.8496 1.15218 22.0312C1.14243 21.9584 1.12532 21.8846 1.10764 21.8096C1.29182 21.8695 1.48279 21.8251 1.58521 21.6959C1.63602 21.6315 1.73422 21.4508 1.55014 21.1623C1.50749 21.0953 1.41843 21.0757 1.35116 21.1181C1.28404 21.1609 1.26449 21.2501 1.30724 21.3171C1.37633 21.4257 1.3783 21.4927 1.35904 21.5172C1.33611 21.5462 1.26575 21.5611 1.19141 21.5352C1.14355 21.5186 1.03241 21.4612 1.03241 21.2878C1.03241 21.1493 1.09644 21.0224 1.20805 20.94C1.31994 20.8572 1.4646 20.8338 1.60433 20.8772C1.77674 20.9298 1.89702 21.1114 1.89702 21.3188C1.89702 21.4671 1.86519 21.6172 1.80683 21.7485C1.79755 21.768 1.57733 22.2242 1.52061 22.3942C1.51621 22.4074 1.51274 22.42 1.50899 22.4327C1.59097 22.5159 1.67568 22.5964 1.763 22.6741C1.75939 22.6285 1.76689 22.5663 1.79389 22.4854C1.83116 22.3739 1.96602 22.0839 2.04111 21.9265C2.11457 22.0802 2.25083 22.3732 2.28838 22.4854C2.33961 22.639 2.32171 22.7266 2.28796 22.7572C2.26532 22.7778 2.23208 22.7769 2.21127 22.7677C2.18525 22.7561 2.18525 22.7378 2.18525 22.7288C2.18525 22.6492 2.1208 22.5847 2.04116 22.5847C1.96152 22.5847 1.89707 22.6492 1.89707 22.7288C1.89707 22.7378 1.89707 22.7561 1.8711 22.7676C1.99443 22.8714 2.12258 22.9697 2.25524 23.062C2.33811 23.059 2.41883 23.0278 2.48207 22.9703C2.55983 22.8998 2.67378 22.7307 2.56166 22.3943ZM1.79385 1.64526C1.74261 1.49161 1.76047 1.40404 1.79427 1.37339C1.81635 1.35258 1.84986 1.35342 1.87096 1.36298C1.89697 1.37451 1.89697 1.39279 1.89697 1.40184C1.89697 1.48148 1.96143 1.54594 2.04107 1.54594C2.12071 1.54594 2.18516 1.48148 2.18516 1.40184C2.18516 1.39284 2.18516 1.37456 2.21118 1.36298C2.23199 1.35342 2.26522 1.35258 2.28786 1.37339C2.32166 1.40409 2.33952 1.49161 2.28829 1.64526C2.25102 1.75673 2.11616 2.0467 2.04107 2.20415C1.96766 2.0504 1.83139 1.75748 1.79385 1.64526ZM2.18474 3.41925C2.13018 3.46172 2.08185 3.51248 2.04111 3.5699C2.00038 3.51248 1.95205 3.46172 1.89749 3.41925C1.95205 3.37678 2.00038 3.32601 2.04111 3.26859C2.0818 3.32601 2.13018 3.37678 2.18474 3.41925ZM1.12457 6.70097L2.04111 4.63879L2.95766 6.70097C3.01804 6.83662 3.04982 6.98662 3.04982 7.13498C3.04982 7.3424 2.92949 7.52395 2.75713 7.57659C2.61725 7.62023 2.4726 7.59656 2.36085 7.51383C2.24924 7.43137 2.18521 7.30443 2.18521 7.16597C2.18521 6.99258 2.29639 6.9352 2.34421 6.91856C2.41836 6.89268 2.489 6.90759 2.51183 6.93656C2.5311 6.96103 2.52913 7.02801 2.46004 7.13667C2.41724 7.20365 2.43683 7.29286 2.50396 7.33565C2.57164 7.37817 2.66043 7.35872 2.70294 7.29145C2.88702 7.00298 2.78877 6.82228 2.73796 6.75783C2.63352 6.62611 2.43739 6.58106 2.24966 6.64636C2.22824 6.65376 2.20663 6.66295 2.18521 6.67383V6.30933C2.18525 6.30942 2.18544 6.30956 2.18544 6.30956C2.18985 6.3854 2.25261 6.44536 2.3293 6.44536C2.40894 6.44536 2.47339 6.3809 2.47339 6.30126C2.47339 6.20728 2.40768 6.04425 2.18521 5.99372V5.72489C2.18521 5.64525 2.12075 5.58079 2.04111 5.58079C1.96147 5.58079 1.89702 5.64525 1.89702 5.72489V5.99372C1.67455 6.04425 1.60883 6.20728 1.60883 6.30126C1.60883 6.3809 1.67314 6.45014 1.75264 6.45014C1.83229 6.45014 1.89646 6.39047 1.89646 6.31083C1.8965 6.31054 1.89693 6.31026 1.89702 6.30998V6.67378C1.8756 6.6629 1.85399 6.65372 1.83257 6.64631C1.64483 6.58101 1.44852 6.62606 1.34427 6.75778C1.29346 6.82223 1.19525 7.00294 1.37933 7.2914C1.42213 7.35839 1.51105 7.37779 1.57832 7.33561C1.64544 7.29281 1.66499 7.20361 1.62224 7.13662C1.55314 7.02797 1.55118 6.96098 1.57044 6.93651C1.59308 6.90754 1.66377 6.89259 1.73807 6.91851C1.78593 6.93511 1.89707 6.99253 1.89707 7.16592C1.89707 7.30439 1.83303 7.43133 1.72143 7.51378C1.60954 7.59651 1.46502 7.62018 1.32514 7.57654C1.15274 7.5239 1.03246 7.34236 1.03246 7.13493C1.03236 6.98662 1.06419 6.83662 1.12457 6.70097ZM2.18614 7.74234C2.12924 7.785 2.0825 7.83722 2.04111 7.89347C1.99972 7.83722 1.95294 7.78495 1.89608 7.74234C1.95299 7.69969 1.99972 7.64747 2.04111 7.59122C2.08246 7.64742 2.12924 7.69969 2.18614 7.74234ZM1.12457 8.78367C1.06419 8.64801 1.03241 8.49801 1.03241 8.34965C1.03241 8.14223 1.15274 7.96069 1.3251 7.90804C1.46511 7.86473 1.60963 7.88808 1.72138 7.97081C1.83299 8.05326 1.89702 8.1802 1.89702 8.31867C1.89702 8.49206 1.78583 8.54948 1.73802 8.56608C1.66372 8.59223 1.59308 8.57704 1.57039 8.54808C1.55113 8.52361 1.5531 8.45662 1.62219 8.34797C1.66499 8.28098 1.64539 8.19178 1.57827 8.14898C1.511 8.10647 1.42222 8.1262 1.37929 8.19318C1.19521 8.4817 1.29346 8.66236 1.34422 8.72681C1.44852 8.85853 1.64483 8.90358 1.83252 8.83828C1.85394 8.83087 1.87555 8.82168 1.89697 8.81081V9.17526L1.89669 9.17489C1.89233 9.09918 1.82957 9.03923 1.75288 9.03923C1.67324 9.03923 1.60879 9.10369 1.60879 9.18333C1.60879 9.27736 1.6745 9.44034 1.89697 9.49087V9.7597C1.89697 9.83934 1.96143 9.90379 2.04107 9.90379C2.12071 9.90379 2.18516 9.83934 2.18516 9.7597V9.49087C2.40763 9.44034 2.47335 9.27731 2.47335 9.18333C2.47335 9.10369 2.40904 9.03445 2.32954 9.03445C2.24989 9.03445 2.18572 9.09412 2.18572 9.17376C2.18568 9.17404 2.18525 9.17433 2.18525 9.17433L2.18521 8.81081C2.20663 8.82168 2.22824 8.83087 2.24966 8.83828C2.43739 8.90358 2.63357 8.85853 2.73796 8.72681C2.78877 8.66236 2.88697 8.48165 2.70294 8.19318C2.66014 8.12592 2.57122 8.10623 2.50396 8.14898C2.43683 8.19178 2.41729 8.28098 2.46004 8.34797C2.52913 8.45662 2.5311 8.52361 2.51183 8.54808C2.48905 8.57704 2.41841 8.59228 2.34421 8.56608C2.29635 8.54948 2.18521 8.49206 2.18521 8.31867C2.18521 8.1802 2.24924 8.05326 2.36085 7.97081C2.47274 7.88808 2.61754 7.86473 2.75713 7.90804C2.92954 7.96069 3.04982 8.14223 3.04982 8.34965C3.04982 8.49797 3.01804 8.64801 2.95766 8.78367L2.04111 10.8458L1.12457 8.78367ZM2.18474 12.0654C2.13018 12.1079 2.08185 12.1586 2.04111 12.216C2.00038 12.1586 1.95205 12.1079 1.89749 12.0654C1.95205 12.0229 2.00038 11.9722 2.04111 11.9147C2.0818 11.9722 2.13018 12.0229 2.18474 12.0654ZM1.12457 15.3471L2.04111 13.285L2.95766 15.3471C3.01804 15.4828 3.04982 15.6328 3.04982 15.7811C3.04982 15.9885 2.92949 16.1701 2.75713 16.2227C2.61725 16.2664 2.4726 16.2427 2.36085 16.16C2.24924 16.0775 2.18521 15.9506 2.18521 15.8121C2.18521 15.6387 2.29639 15.5813 2.34421 15.5647C2.41836 15.5388 2.489 15.5537 2.51183 15.5827C2.5311 15.6072 2.52913 15.6742 2.46004 15.7828C2.41724 15.8498 2.43683 15.939 2.50396 15.9818C2.57164 16.0246 2.66043 16.0049 2.70294 15.9376C2.88702 15.6491 2.78877 15.4684 2.73796 15.404C2.63352 15.2722 2.43739 15.2275 2.24966 15.2925C2.22824 15.2999 2.20663 15.3091 2.18521 15.32V14.9555L2.18549 14.9558C2.18985 15.0315 2.25261 15.0915 2.3293 15.0915C2.40894 15.0915 2.47339 15.027 2.47339 14.9474C2.47339 14.8534 2.40768 14.6904 2.18521 14.6399V14.371C2.18521 14.2913 2.12075 14.2269 2.04111 14.2269C1.96147 14.2269 1.89702 14.2913 1.89702 14.371V14.6399C1.67455 14.6904 1.60883 14.8534 1.60883 14.9474C1.60883 15.027 1.67314 15.0963 1.75264 15.0963C1.83229 15.0963 1.89646 15.0366 1.89646 14.957C1.8965 14.9567 1.89693 14.9564 1.89693 14.9564L1.89702 15.3199C1.8756 15.309 1.85399 15.2999 1.83257 15.2924C1.64483 15.2274 1.44852 15.2722 1.34427 15.4039C1.29346 15.4684 1.19525 15.6491 1.37933 15.9375C1.42213 16.0045 1.51105 16.0239 1.57832 15.9817C1.64544 15.9389 1.66499 15.8497 1.62224 15.7828C1.55314 15.6741 1.55118 15.6071 1.57044 15.5827C1.59308 15.5537 1.66377 15.5387 1.73807 15.5647C1.78593 15.5812 1.89707 15.6387 1.89707 15.8121C1.89707 15.9505 1.83303 16.0775 1.72143 16.1599C1.60954 16.2427 1.46502 16.2663 1.32514 16.2227C1.15274 16.17 1.03246 15.9885 1.03246 15.7811C1.03236 15.6328 1.06419 15.4828 1.12457 15.3471ZM2.18614 16.3885C2.12924 16.4311 2.0825 16.4834 2.04111 16.5396C1.99972 16.4834 1.95294 16.4311 1.89608 16.3885C1.95299 16.3458 1.99972 16.2936 2.04111 16.2374C2.08246 16.2936 2.12924 16.3458 2.18614 16.3885ZM1.12457 17.4299C1.06419 17.2942 1.03241 17.1442 1.03241 16.9958C1.03241 16.7884 1.15274 16.6069 1.3251 16.5542C1.46511 16.5109 1.60963 16.5343 1.72138 16.617C1.83299 16.6994 1.89702 16.8264 1.89702 16.9649C1.89702 17.1382 1.78583 17.1957 1.73802 17.2123C1.66372 17.2381 1.59308 17.2232 1.57039 17.1943C1.55113 17.1698 1.5531 17.1028 1.62219 16.9942C1.66499 16.9272 1.64539 16.838 1.57827 16.7952C1.511 16.7529 1.42222 16.7727 1.37929 16.8394C1.19521 17.1279 1.29346 17.3085 1.34422 17.373C1.44852 17.5047 1.64483 17.55 1.83252 17.4845C1.85394 17.477 1.87555 17.4679 1.89697 17.457V17.8214C1.89693 17.8214 1.89674 17.8212 1.89674 17.8212C1.89233 17.7454 1.82957 17.6854 1.75288 17.6854C1.67324 17.6854 1.60879 17.7499 1.60879 17.8295C1.60879 17.9235 1.6745 18.0865 1.89697 18.1371V18.4059C1.89697 18.4856 1.96143 18.55 2.04107 18.55C2.12071 18.55 2.18516 18.4856 2.18516 18.4059V18.1371C2.40763 18.0865 2.47335 17.9235 2.47335 17.8295C2.47335 17.7499 2.40904 17.6806 2.32954 17.6806C2.24989 17.6806 2.18572 17.7403 2.18572 17.82C2.18568 17.8202 2.18525 17.8205 2.18516 17.8208V17.457C2.20658 17.4679 2.22819 17.4771 2.24961 17.4845C2.43735 17.55 2.63352 17.5047 2.73791 17.373C2.78872 17.3085 2.88693 17.1278 2.70289 16.8394C2.6601 16.7724 2.57118 16.7527 2.50391 16.7952C2.43679 16.838 2.41724 16.9272 2.45999 16.9942C2.52908 17.1028 2.53105 17.1698 2.51179 17.1943C2.489 17.2232 2.41836 17.2382 2.34416 17.2123C2.2963 17.1957 2.18516 17.1382 2.18516 16.9649C2.18516 16.8264 2.24919 16.6994 2.3608 16.617C2.47269 16.5343 2.61749 16.5106 2.75708 16.5542C2.92949 16.6069 3.04977 16.7884 3.04977 16.9958C3.04977 17.1442 3.01799 17.2942 2.95761 17.4299L2.04107 19.492L1.12457 17.4299ZM2.04111 20.8622C2.00038 20.8048 1.95205 20.754 1.89749 20.7115C1.95205 20.6691 2.00038 20.6183 2.04111 20.5609C2.08185 20.6183 2.13018 20.6691 2.18474 20.7115C2.13018 20.754 2.0818 20.8048 2.04111 20.8622Z" fill="#FFE15A"/>
<path d="M12.6692 13.4166C14.1801 13.4166 15.4048 12.1918 15.4048 10.6809C15.4048 9.17009 14.1801 7.94531 12.6692 7.94531C11.1584 7.94531 9.93359 9.17009 9.93359 10.6809C9.93359 12.1918 11.1584 13.4166 12.6692 13.4166Z" fill="#FFE15A"/>
<path d="M12.8752 7.19369C12.8752 7.30698 12.7833 7.39886 12.67 7.39886C12.5567 7.39886 12.4648 7.30698 12.4648 7.19369C12.4648 7.08039 12.67 6.57812 12.67 6.57812C12.67 6.57812 12.8752 7.08039 12.8752 7.19369Z" fill="#FFE15A"/>
<path d="M12.4648 14.17C12.4648 14.0567 12.5567 13.9648 12.67 13.9648C12.7834 13.9648 12.8752 14.0567 12.8752 14.17C12.8752 14.2834 12.67 14.7856 12.67 14.7856C12.67 14.7856 12.4648 14.2834 12.4648 14.17Z" fill="#FFE15A"/>
<path d="M16.1583 10.8869C16.045 10.8869 15.9531 10.795 15.9531 10.6817C15.9531 10.5684 16.045 10.4766 16.1583 10.4766C16.2716 10.4766 16.7739 10.6817 16.7739 10.6817C16.7739 10.6817 16.2716 10.8869 16.1583 10.8869Z" fill="#FFE15A"/>
<path d="M9.18197 10.4766C9.29527 10.4766 9.38714 10.5684 9.38714 10.6817C9.38714 10.795 9.29527 10.8869 9.18197 10.8869C9.06867 10.8869 8.56641 10.6817 8.56641 10.6817C8.56641 10.6817 9.06867 10.4766 9.18197 10.4766Z" fill="#FFE15A"/>
<path d="M15.2819 8.35961C15.2018 8.43972 15.0718 8.43972 14.9917 8.35961C14.9116 8.2795 14.9116 8.14956 14.9917 8.06945C15.0718 7.9893 15.5721 7.7793 15.5721 7.7793C15.5721 7.7793 15.362 8.27945 15.2819 8.35961Z" fill="#FFE15A"/>
<path d="M10.0597 13.0015C10.1398 12.9214 10.2698 12.9214 10.3499 13.0015C10.43 13.0816 10.43 13.2115 10.3499 13.2916C10.2698 13.3718 9.76953 13.5818 9.76953 13.5818C9.76953 13.5818 9.97962 13.0816 10.0597 13.0015Z" fill="#FFE15A"/>
<path d="M14.9917 13.2916C14.9116 13.2115 14.9116 13.0816 14.9917 13.0015C15.0718 12.9214 15.2018 12.9214 15.2819 13.0015C15.362 13.0816 15.572 13.5818 15.572 13.5818C15.572 13.5818 15.0718 13.3718 14.9917 13.2916Z" fill="#FFE15A"/>
<path d="M10.3498 8.0695C10.43 8.14961 10.43 8.27955 10.3498 8.35966C10.2697 8.43977 10.1398 8.43977 10.0597 8.35966C9.97958 8.27955 9.76953 7.7793 9.76953 7.7793C9.76953 7.7793 10.2697 7.98939 10.3498 8.0695Z" fill="#FFE15A"/>
<path d="M11.5267 7.3808C11.57 7.48552 11.5203 7.60552 11.4156 7.64887C11.311 7.69223 11.1909 7.64255 11.1475 7.53783C11.1042 7.43316 11.1016 6.89062 11.1016 6.89062C11.1016 6.89062 11.4833 7.27608 11.5267 7.3808Z" fill="#FFE15A"/>
<path d="M13.8165 13.983C13.7731 13.8783 13.8228 13.7583 13.9275 13.7149C14.0322 13.6715 14.1522 13.7212 14.1956 13.8259C14.2389 13.9306 14.2416 14.4731 14.2416 14.4731C14.2416 14.4731 13.8598 14.0876 13.8165 13.983Z" fill="#FFE15A"/>
<path d="M15.9713 9.53644C15.8666 9.5798 15.7465 9.53011 15.7032 9.42539C15.6598 9.32067 15.7095 9.20067 15.8142 9.15731C15.9189 9.11395 16.4614 9.11133 16.4614 9.11133C16.4614 9.11133 16.0759 9.49308 15.9713 9.53644Z" fill="#FFE15A"/>
<path d="M9.36908 11.8262C9.47375 11.7829 9.5938 11.8325 9.63716 11.9373C9.68052 12.0419 9.63083 12.162 9.52611 12.2053C9.42144 12.2487 8.87891 12.2513 8.87891 12.2513C8.87891 12.2513 9.26436 11.8696 9.36908 11.8262Z" fill="#FFE15A"/>
<path d="M14.1956 7.53783C14.1522 7.64255 14.0322 7.69223 13.9275 7.64887C13.8228 7.60552 13.7731 7.48547 13.8164 7.3808C13.8598 7.27613 14.2416 6.89062 14.2416 6.89062C14.2416 6.89062 14.2389 7.43311 14.1956 7.53783Z" fill="#FFE15A"/>
<path d="M11.1475 13.8259C11.1909 13.7212 11.311 13.6715 11.4156 13.7149C11.5203 13.7583 11.57 13.8783 11.5267 13.983C11.4833 14.0876 11.1016 14.4731 11.1016 14.4731C11.1016 14.4731 11.1041 13.9306 11.1475 13.8259Z" fill="#FFE15A"/>
<path d="M15.8142 12.2053C15.7095 12.162 15.6598 12.0419 15.7032 11.9373C15.7465 11.8326 15.8666 11.7829 15.9712 11.8262C16.0759 11.8696 16.4614 12.2513 16.4614 12.2513C16.4614 12.2513 15.9189 12.2487 15.8142 12.2053Z" fill="#FFE15A"/>
<path d="M9.52611 9.15731C9.63078 9.20067 9.68052 9.32072 9.63716 9.42539C9.5938 9.53006 9.47375 9.5798 9.36908 9.53644C9.26436 9.49308 8.87891 9.11133 8.87891 9.11133C8.87891 9.11133 9.42139 9.11395 9.52611 9.15731Z" fill="#FFE15A"/>
<path d="M12.1907 7.21992C12.2129 7.33106 12.1407 7.43906 12.0295 7.46119C11.9184 7.48331 11.8104 7.41113 11.7883 7.29998C11.7661 7.18884 11.8694 6.65625 11.8694 6.65625C11.8694 6.65625 12.1686 7.10878 12.1907 7.21992Z" fill="#FFE15A"/>
<path d="M13.1485 14.1417C13.1264 14.0306 13.1986 13.9226 13.3097 13.9005C13.4209 13.8783 13.5289 13.9505 13.551 14.0617C13.5731 14.1728 13.4698 14.7054 13.4698 14.7054C13.4698 14.7054 13.1706 14.2529 13.1485 14.1417Z" fill="#FFE15A"/>
<path d="M16.132 10.2025C16.0208 10.2246 15.9128 10.1524 15.8907 10.0412C15.8686 9.93011 15.9408 9.82206 16.0519 9.79998C16.163 9.77786 16.6956 9.88112 16.6956 9.88112C16.6956 9.88112 16.2431 10.1804 16.132 10.2025Z" fill="#FFE15A"/>
<path d="M9.21016 11.1602C9.3213 11.1381 9.42934 11.2103 9.45142 11.3214C9.47355 11.4326 9.40136 11.5406 9.29022 11.5627C9.17908 11.5848 8.64648 11.4816 8.64648 11.4816C8.64648 11.4816 9.09902 11.1823 9.21016 11.1602Z" fill="#FFE15A"/>
<path d="M14.7781 7.89531C14.7152 7.98953 14.5878 8.01489 14.4936 7.95194C14.3993 7.88898 14.374 7.76158 14.4369 7.66736C14.4999 7.57314 14.9495 7.26953 14.9495 7.26953C14.9495 7.26953 14.8411 7.80109 14.7781 7.89531Z" fill="#FFE15A"/>
<path d="M10.562 13.4682C10.625 13.374 10.7524 13.3486 10.8466 13.4115C10.9408 13.4745 10.9662 13.6019 10.9032 13.6961C10.8402 13.7903 10.3906 14.094 10.3906 14.094C10.3906 14.094 10.499 13.5624 10.562 13.4682Z" fill="#FFE15A"/>
<path d="M15.4565 12.7899C15.3622 12.7269 15.3369 12.5995 15.3998 12.5053C15.4628 12.4111 15.5902 12.3857 15.6844 12.4487C15.7786 12.5116 16.0822 12.9612 16.0822 12.9612C16.0822 12.9612 15.5507 12.8529 15.4565 12.7899Z" fill="#FFE15A"/>
<path d="M9.88359 8.57177C9.97781 8.63472 10.0032 8.76213 9.94022 8.85634C9.87727 8.95056 9.74986 8.97592 9.65564 8.91297C9.56142 8.85002 9.25781 8.40039 9.25781 8.40039C9.25781 8.40039 9.78937 8.50881 9.88359 8.57177Z" fill="#FFE15A"/>
<path d="M10.9032 7.66736C10.9662 7.76158 10.9408 7.88898 10.8466 7.95194C10.7524 8.01489 10.625 7.98953 10.562 7.89531C10.499 7.80109 10.3906 7.26953 10.3906 7.26953C10.3906 7.26953 10.8402 7.57309 10.9032 7.66736Z" fill="#FFE15A"/>
<path d="M14.4369 13.6961C14.374 13.6019 14.3993 13.4745 14.4936 13.4115C14.5878 13.3486 14.7152 13.374 14.7781 13.4682C14.8411 13.5624 14.9495 14.094 14.9495 14.094C14.9495 14.094 14.4999 13.7903 14.4369 13.6961Z" fill="#FFE15A"/>
<path d="M15.6844 8.91297C15.5902 8.97592 15.4628 8.95056 15.3998 8.85634C15.3369 8.76213 15.3622 8.63472 15.4565 8.57177C15.5507 8.50881 16.0822 8.40039 16.0822 8.40039C16.0822 8.40039 15.7786 8.85002 15.6844 8.91297Z" fill="#FFE15A"/>
<path d="M9.65564 12.4487C9.74986 12.3857 9.87727 12.4111 9.94022 12.5053C10.0032 12.5995 9.97781 12.7269 9.88359 12.7899C9.78938 12.8528 9.25781 12.9612 9.25781 12.9612C9.25781 12.9612 9.56142 12.5116 9.65564 12.4487Z" fill="#FFE15A"/>
<path d="M13.551 7.29998C13.5289 7.41113 13.4209 7.48331 13.3097 7.46119C13.1986 7.43906 13.1264 7.33106 13.1485 7.21992C13.1706 7.10878 13.4698 6.65625 13.4698 6.65625C13.4698 6.65625 13.5731 7.18884 13.551 7.29998Z" fill="#FFE15A"/>
<path d="M11.7883 14.0617C11.8104 13.9505 11.9184 13.8783 12.0295 13.9005C12.1407 13.9226 12.2129 14.0306 12.1907 14.1417C12.1686 14.2529 11.8694 14.7054 11.8694 14.7054C11.8694 14.7054 11.7661 14.1728 11.7883 14.0617Z" fill="#FFE15A"/>
<path d="M16.0519 11.5627C15.9408 11.5406 15.8686 11.4326 15.8907 11.3214C15.9128 11.2103 16.0208 11.1381 16.132 11.1602C16.2431 11.1824 16.6956 11.4816 16.6956 11.4816C16.6956 11.4816 16.163 11.5848 16.0519 11.5627Z" fill="#FFE15A"/>
<path d="M9.28827 9.79998C9.39941 9.82211 9.47159 9.93011 9.44947 10.0412C9.42734 10.1524 9.31934 10.2246 9.2082 10.2025C9.09706 10.1803 8.64453 9.88112 8.64453 9.88112C8.64453 9.88112 9.17713 9.77786 9.28827 9.79998Z" fill="#FFE15A"/>
<path d="M19.1057 11.4016C19.0256 11.3679 18.934 11.4065 18.9006 11.4862C18.9006 11.4865 18.9006 11.4865 18.9006 11.4865C18.9 11.488 18.897 11.4954 18.8916 11.508C18.773 11.785 18.5277 12.1898 18.2799 12.5706C18.5107 11.8278 18.7216 11.0345 18.7364 10.9787C18.7584 10.8954 18.7091 10.8099 18.6259 10.7872C18.5425 10.7649 18.4569 10.8133 18.4336 10.8963C18.3259 11.2821 18.1057 11.7898 17.9025 12.2197C17.9398 11.7405 17.9468 11.2965 17.9473 11.2643C17.9485 11.1794 17.882 11.1092 17.7971 11.1053C17.7173 11.1077 17.6402 11.1659 17.634 11.2508C17.4331 14.0141 14.7741 15.2502 14.5152 15.3639C14.3798 15.3774 13.7489 15.4485 13.1761 15.6474C13.1112 15.67 13.056 15.6925 13.0008 15.7149C12.9804 15.7073 12.9584 15.703 12.9353 15.7044C11.1777 15.8315 9.77625 15.1105 8.76904 13.5658C8.00803 12.3987 7.76934 11.1736 7.76704 11.1613C7.75097 11.0762 7.66945 11.0213 7.58381 11.0363C7.49864 11.0525 7.44272 11.1344 7.45879 11.2195C7.46517 11.2533 7.56984 11.7881 7.85831 12.4918C7.47244 11.8827 7.20356 11.1447 7.10887 10.7605C7.107 10.7528 7.10208 10.747 7.09917 10.7399C7.09476 10.729 7.09101 10.7181 7.0845 10.7087C7.07986 10.702 7.07386 10.6972 7.06833 10.6914C7.05975 10.6824 7.0515 10.6735 7.04109 10.6668C7.03509 10.6629 7.02834 10.6609 7.02187 10.6579C7.01025 10.6525 6.99895 10.6472 6.98606 10.6448C6.97715 10.643 6.96797 10.6442 6.95873 10.644C6.94936 10.6439 6.94045 10.6415 6.93084 10.6432C6.92873 10.6435 6.92714 10.6449 6.92503 10.6454C6.92301 10.6457 6.92104 10.6451 6.91903 10.6456C6.91064 10.6477 6.90422 10.6529 6.89653 10.6562C6.88673 10.6604 6.8767 10.6636 6.86812 10.6696C6.85968 10.6754 6.8534 10.6829 6.84633 10.6902C6.83934 10.6974 6.83194 10.7037 6.82645 10.7121C6.82087 10.7206 6.81783 10.7301 6.81394 10.7395C6.81014 10.7487 6.80578 10.7573 6.80376 10.7672C6.8017 10.7774 6.80264 10.7879 6.80269 10.7984C6.80269 10.8069 6.80039 10.815 6.80184 10.8236C6.80245 10.8273 6.80367 10.831 6.80428 10.8347V10.8353C6.80447 10.836 6.8047 10.8369 6.80489 10.8375C6.90192 11.4093 7.13325 12.0021 7.34236 12.4541C7.0102 12.0772 6.73275 11.643 6.63436 11.3859C6.6315 11.3784 6.62583 11.3732 6.62198 11.3665C6.61612 11.356 6.61106 11.3455 6.60319 11.3369C6.59765 11.3308 6.59081 11.3268 6.58448 11.3217C6.57497 11.314 6.56587 11.3063 6.55486 11.301C6.54778 11.2976 6.54014 11.2966 6.53264 11.2943C6.52106 11.2907 6.50986 11.2869 6.49753 11.2862C6.48783 11.2855 6.47826 11.288 6.46847 11.2892C6.45942 11.2904 6.45047 11.2892 6.44142 11.2921C6.43969 11.2926 6.43851 11.294 6.43683 11.2946C6.43514 11.2951 6.43345 11.2948 6.43176 11.2954C6.42323 11.2987 6.41719 11.305 6.40954 11.3095C6.40059 11.3148 6.39108 11.3192 6.38348 11.326C6.37565 11.333 6.37031 11.3417 6.36417 11.35C6.35836 11.3578 6.35184 11.3649 6.34758 11.3736C6.34308 11.3828 6.34144 11.3928 6.33881 11.4026C6.33623 11.4123 6.33281 11.4213 6.33215 11.4315C6.33145 11.4416 6.33394 11.4517 6.33529 11.462C6.33647 11.4708 6.33525 11.4797 6.33801 11.4885C6.50869 12.0391 6.91931 12.6942 7.24087 13.1557C6.97289 12.9492 6.77587 12.7258 6.71873 12.6584C6.71259 12.651 6.7065 12.6437 6.70036 12.6363C6.64504 12.5698 6.54731 12.5603 6.48033 12.6145C6.41353 12.6691 6.40312 12.7671 6.45703 12.8342C6.45994 12.8379 6.47175 12.8526 6.49134 12.8756C6.72665 13.1557 6.98315 13.4171 7.21542 13.6377L6.89765 13.5023C6.82519 13.471 6.74001 13.4993 6.70031 13.5682C6.66065 13.6371 6.67856 13.7245 6.74212 13.7723C6.77306 13.7952 7.33579 14.2157 7.82301 14.4641C7.77703 14.4669 7.72312 14.4635 7.66275 14.4589C7.58906 14.4519 7.51659 14.5046 7.49864 14.5794C7.48101 14.6545 7.52025 14.731 7.5915 14.7604C7.60345 14.7654 7.7519 14.8266 7.93528 14.8919C7.89253 14.9094 7.85854 14.9452 7.84443 14.9918C7.82329 15.0613 7.85301 15.1367 7.91615 15.1728C7.93256 15.1824 8.15442 15.3095 8.42878 15.4223C8.42142 15.4336 8.41547 15.4458 8.41101 15.4593C8.38954 15.5252 8.41406 15.5975 8.47125 15.6371C8.51887 15.6699 9.58448 16.393 10.829 16.393C10.9107 16.393 10.9933 16.39 11.0763 16.3832C11.1625 16.3765 11.227 16.3008 11.2201 16.2144C11.2132 16.128 11.1383 16.0627 11.0512 16.0707C10.2693 16.1344 9.51614 15.8409 9.06815 15.6166C9.12731 15.6022 9.16129 15.589 9.16973 15.5856C9.23883 15.5575 9.27867 15.4848 9.26517 15.4116C9.25167 15.3384 9.18858 15.2847 9.11395 15.2832C8.93208 15.2795 8.68022 15.1909 8.46328 15.096C8.54526 15.0549 8.59303 15.0157 8.59734 15.0123C8.64454 14.9728 8.66447 14.9096 8.64834 14.8502C8.63212 14.791 8.58276 14.7466 8.52211 14.7368C8.45545 14.7258 8.37243 14.7043 8.28539 14.678C8.36995 14.6293 8.40595 14.5757 8.41978 14.5484C8.44153 14.5049 8.442 14.454 8.42114 14.4102C8.40014 14.3664 8.36015 14.3348 8.31267 14.3247C8.27161 14.3158 8.2252 14.3008 8.17495 14.2812C8.18414 14.272 8.19258 14.2616 8.19947 14.2496C8.23945 14.1819 8.2229 14.0949 8.16084 14.0462C8.15761 14.0437 8.03583 13.9481 7.85151 13.789C7.88076 13.7783 7.90668 13.7584 7.92534 13.7314C7.96486 13.6744 7.96214 13.5981 7.91873 13.5442C7.91526 13.5399 7.79329 13.3866 7.62525 13.1537C7.6807 13.1968 7.7362 13.2408 7.79156 13.2764C7.81762 13.2929 7.84715 13.3012 7.87645 13.3012C7.91611 13.3012 7.95534 13.2862 7.98553 13.2571C7.99795 13.2451 8.00765 13.2313 8.01529 13.2166C8.11045 13.3182 8.21048 13.4106 8.31553 13.4894C8.32922 13.4996 8.34581 13.4994 8.36123 13.5046C8.40572 13.5791 8.45208 13.654 8.50059 13.7287C9.45328 15.1945 10.7966 15.9797 12.4078 16.0269C12.2594 16.117 12.0984 16.21 11.8433 16.3093C11.7877 16.331 11.7385 16.3528 11.689 16.3745C11.6652 16.3792 11.6428 16.3878 11.6241 16.4027C11.179 16.6087 10.9947 16.8123 10.9199 16.9547C10.8453 17.0962 10.9096 17.2415 11.0008 17.3169C11.0292 17.3402 11.0652 17.3521 11.1013 17.3521C11.1261 17.3521 11.151 17.3466 11.1735 17.3352C11.229 17.3077 11.266 17.2491 11.2636 17.1875C11.27 17.1805 11.2973 17.1578 11.3828 17.155C11.4451 17.1498 11.5763 17.164 11.7293 17.1762C11.8749 17.1882 12.0496 17.2018 12.2353 17.2113C12.1192 17.3468 11.9841 17.5037 11.9841 17.5037C11.9435 17.551 11.9346 17.6178 11.9616 17.6738C11.9887 17.7302 12.0471 17.7651 12.1084 17.763C12.2323 17.7587 12.3166 17.7562 12.3719 17.755C12.4202 17.8181 12.4793 17.8433 12.5175 17.8531C12.6253 17.8806 12.7328 17.8375 12.8139 17.7863C12.8752 17.8304 12.9365 17.8491 12.985 17.8561C13.0946 17.8711 13.196 17.8393 13.2694 17.8031C13.3454 17.8521 13.4198 17.8647 13.4765 17.8647C13.4773 17.8647 13.4782 17.8647 13.4791 17.8647C13.6015 17.8641 13.7086 17.8049 13.7844 17.747C13.8514 17.7869 13.9154 17.7997 13.9649 17.8019C14.0772 17.8059 14.1704 17.7626 14.2323 17.7222C14.4533 17.7666 14.6439 17.6624 14.7699 17.5475C14.8274 17.581 14.8821 17.5892 14.9256 17.587C15.0375 17.5831 15.1229 17.515 15.1776 17.4541C15.4282 17.4844 15.6081 17.4381 15.7122 17.3147C15.7688 17.2475 15.7919 17.1719 15.7981 17.1029C16.4936 17.0989 16.5565 16.7193 16.5616 16.6724C16.5662 16.6298 16.5532 16.5873 16.5255 16.5544C16.4979 16.5217 16.4579 16.5014 16.4152 16.499L14.592 16.3893C14.5156 16.3838 14.4476 16.435 14.4299 16.5094C14.4295 16.5107 14.3985 16.6265 14.3011 16.719C14.1703 16.8439 13.9596 16.91 13.7303 16.9449C13.7312 16.9239 13.7282 16.9025 13.7202 16.8817C13.6889 16.8008 13.5979 16.7616 13.5173 16.792C13.1409 16.938 12.5315 16.9196 12.0547 16.8865C12.1279 16.8266 12.2159 16.7675 12.2862 16.7289C12.3457 16.6961 12.3775 16.629 12.365 16.5622C12.3558 16.5137 12.3208 16.4799 12.2784 16.4582C12.411 16.3913 12.5197 16.3266 12.6228 16.2637C12.8018 16.154 12.9709 16.0507 13.2789 15.9437C13.8734 15.7372 14.5612 15.6744 14.5681 15.6738C14.5837 15.6726 14.5991 15.6686 14.6137 15.6628C14.6382 15.6527 16.5786 14.8397 17.4928 12.9641C17.4809 13.0208 17.468 13.0726 17.454 13.118C17.4301 13.1952 17.4688 13.2776 17.5432 13.3089C17.6008 13.3331 17.6662 13.3205 17.7105 13.2795C17.6527 13.4318 17.6005 13.5516 17.5579 13.6224C17.5144 13.6944 17.5354 13.7878 17.6054 13.8344C17.6218 13.8452 17.6394 13.8525 17.6575 13.8568C17.5867 13.9604 17.515 14.0584 17.4435 14.1482C17.3958 14.208 17.3985 14.2931 17.4484 14.3495C17.3255 14.4782 17.2166 14.5842 17.1338 14.6516C17.0797 14.6955 17.0621 14.7687 17.087 14.8312C17.0071 14.8769 16.9416 14.909 16.896 14.9228C16.8197 14.9458 16.7729 15.0227 16.7872 15.1012C16.7947 15.1425 16.818 15.1775 16.8502 15.2005C16.7543 15.2262 16.6493 15.251 16.5353 15.2737C16.4711 15.2865 16.4217 15.3377 16.4111 15.4023C16.4007 15.467 16.4313 15.5313 16.4881 15.5638C16.4931 15.5666 16.5466 15.5969 16.6286 15.6318C16.3251 15.7541 15.7832 15.9137 14.894 16.0014C14.8079 16.01 14.7447 16.0869 14.7533 16.173C14.7618 16.2591 14.8362 16.3189 14.925 16.314C16.613 16.147 17.1343 15.7244 17.1555 15.7063C17.2042 15.6656 17.2236 15.5991 17.2042 15.5384C17.1914 15.4983 17.1632 15.4658 17.127 15.4471C17.6663 15.2774 17.8979 15.0895 17.91 15.0794C17.9691 15.0304 17.984 14.9455 17.9451 14.879C17.9058 14.8125 17.8242 14.7837 17.7529 14.8125C17.7329 14.8202 17.7008 14.8281 17.6604 14.8361C18.0223 14.5882 18.4065 14.2931 18.5755 14.1613C18.6052 14.1392 18.6322 14.1181 18.656 14.0982C18.7215 14.043 18.7307 13.9456 18.6766 13.8791C18.6229 13.8129 18.525 13.8019 18.4579 13.8549C18.4334 13.8742 18.408 13.8941 18.3816 13.9147C18.3036 13.9726 18.2038 14.0381 18.0951 14.1056C18.5058 13.6392 18.9193 13.1336 19.0374 12.9884C19.0482 12.9752 19.0587 12.962 19.0695 12.9489C19.1237 12.8815 19.1131 12.7828 19.0457 12.7285C18.9781 12.6734 18.8793 12.6847 18.8252 12.7518L18.8249 12.7522L18.8248 12.7525C18.8219 12.7559 18.8085 12.7724 18.7861 12.8C18.6623 12.9511 18.5321 13.0972 18.4036 13.2339C18.822 12.4755 19.1388 11.729 19.1853 11.6184C19.187 11.6144 19.1885 11.6104 19.1902 11.6065C19.2235 11.5266 19.1857 11.4347 19.1057 11.4016ZM11.7524 16.6901L11.7952 16.6957C11.7427 16.7448 11.7 16.7999 11.666 16.8567C11.5914 16.8507 11.5239 16.8454 11.4709 16.843C11.5439 16.7954 11.6378 16.7436 11.7524 16.6901Z" fill="#FFE15A"/>
</g>
<defs>
<clipPath id="clip0_3993_1861">
<rect width="24" height="24" rx="12" fill="white"/>
</clipPath>
</defs>
</svg>
