<svg width="24" height="24" viewBox="0 0 24 24" fill="none" xmlns="http://www.w3.org/2000/svg">
<g clip-path="url(#clip0_3993_1910)">
<path d="M0 18.75C0 21.6495 2.3505 24 5.25 24H18.75C21.6495 24 24 21.6495 24 18.75V16H0V18.75Z" fill="#73AF00"/>
<path d="M18.75 0H5.25C2.3505 0 0 2.3505 0 5.25V8.00002H24V5.25C24 2.3505 21.6495 0 18.75 0Z" fill="#FF4B55"/>
<path d="M24 8H0V16.0002H24V8Z" fill="#F5F5F5"/>
<path d="M9.93103 14.2565C10.1936 14.1242 10.3473 13.9062 10.4294 13.7487C10.8998 14.056 11.3029 13.9516 11.513 13.8534C11.718 13.7574 11.8867 13.6007 11.9994 13.4411C12.1121 13.6007 12.2808 13.7574 12.4858 13.8534C12.6957 13.9517 13.0988 14.0559 13.5693 13.7487C13.6515 13.9061 13.8051 14.1241 14.0677 14.2565C14.2191 14.3328 14.3859 14.371 14.5671 14.371C14.7531 14.371 14.954 14.3307 15.1686 14.2503L15.0644 13.9723C14.723 14.1003 14.4335 14.1072 14.204 13.9927C13.8829 13.8327 13.7758 13.4797 13.7749 13.4768L13.7122 13.2576L13.5371 13.4034C13.2282 13.6607 12.9083 13.7238 12.6117 13.5845C12.3104 13.4434 12.1478 13.1579 12.1478 13.0722V11.791C12.212 11.6497 12.3538 11.5508 12.5189 11.5508C12.5757 11.5508 12.6317 11.5631 12.6855 11.5873L12.8693 11.6702L12.8415 11.4705C12.7833 11.0508 12.4213 10.7344 11.9994 10.7344C11.5776 10.7344 11.2156 11.0508 11.1573 11.4705L11.1296 11.6702L11.3133 11.5873C11.3671 11.5631 11.4232 11.5508 11.48 11.5508C11.6451 11.5508 11.7868 11.6497 11.851 11.791V13.0722C11.851 13.1579 11.6885 13.4435 11.3872 13.5845C11.0906 13.7238 10.7706 13.6609 10.4617 13.4034L10.288 13.2595L10.2241 13.4762C10.2231 13.4797 10.116 13.8326 9.79486 13.9927C9.56527 14.1072 9.27577 14.1004 8.93447 13.9722L8.83008 14.2503C9.04467 14.3307 9.24567 14.371 9.43163 14.371C9.6127 14.371 9.77962 14.3327 9.93103 14.2565ZM11.4798 11.3281C11.4621 11.3281 11.4444 11.3288 11.4268 11.3304C11.5261 11.109 11.7484 10.957 11.9993 10.957C12.2503 10.957 12.4725 11.109 12.5719 11.3304C12.3411 11.3101 12.1228 11.4229 11.9993 11.6015C11.8854 11.4364 11.695 11.3281 11.4798 11.3281Z" fill="#FFCD5A"/>
<path d="M9.42773 15.2004L9.52181 15.4819C10.1529 15.2713 11.0556 15.1504 11.9982 15.1504C12.9407 15.1504 13.8434 15.2713 14.4745 15.4819L14.5686 15.2004C13.9083 14.9799 12.9714 14.8535 11.9982 14.8535C11.0249 14.8535 10.088 14.9799 9.42773 15.2004Z" fill="#FFCD5A"/>
<path d="M11.9987 14.5566C12.1535 14.5571 12.2898 14.4651 12.3822 14.3412C12.3207 14.3033 12.2388 14.2811 12.146 14.2696C12.146 14.2662 12.1471 14.2632 12.1471 14.2597C12.1471 14.1325 12.087 14.0226 11.9987 13.9629C11.9103 14.0226 11.8502 14.1325 11.8502 14.2597C11.8502 14.2632 11.8513 14.2662 11.8514 14.2696C11.7586 14.2811 11.6766 14.3033 11.6152 14.3412C11.7076 14.4652 11.8439 14.557 11.9987 14.5566Z" fill="#FFCD5A"/>
<path d="M10.6356 14.697C10.7873 14.6665 10.9025 14.5492 10.9682 14.4093C10.9005 14.3844 10.8157 14.3791 10.7225 14.3864C10.7219 14.383 10.7223 14.3798 10.7216 14.3764C10.6962 14.2517 10.6153 14.1561 10.5168 14.1152C10.4422 14.1914 10.4053 14.3111 10.4308 14.4358C10.4315 14.4392 10.4331 14.442 10.4339 14.4453C10.3453 14.4751 10.2694 14.5132 10.2168 14.5627C10.3321 14.6656 10.484 14.7284 10.6356 14.697Z" fill="#FFCD5A"/>
<path d="M13.4787 14.1152C13.3802 14.1561 13.2994 14.2517 13.2739 14.3764C13.2732 14.3798 13.2737 14.383 13.2731 14.3864C13.1799 14.3791 13.0951 14.3844 13.0273 14.4093C13.0931 14.5492 13.2083 14.6665 13.36 14.697C13.5115 14.7284 13.6635 14.6656 13.7787 14.5627C13.7262 14.5132 13.6503 14.4751 13.5617 14.4453C13.5624 14.442 13.5641 14.4392 13.5648 14.4358C13.5902 14.3111 13.5533 14.1914 13.4787 14.1152Z" fill="#FFCD5A"/>
<path d="M11.9584 8.64825L11.8584 8.94806L11.5423 8.9505C11.5014 8.95083 11.4845 9.00305 11.5174 9.02733L11.7716 9.21506L11.6763 9.51638C11.6639 9.55538 11.7083 9.58767 11.7416 9.56386L11.9987 9.38006L12.2558 9.56386C12.2891 9.58767 12.3335 9.55538 12.3212 9.51638L12.2258 9.21506L12.4801 9.02733C12.513 9.003 12.496 8.95078 12.4551 8.9505L12.1391 8.94806L12.0391 8.64825C12.0262 8.60944 11.9713 8.60944 11.9584 8.64825Z" fill="#FFCD5A"/>
<path d="M10.1498 9.14239L10.0498 9.4422L9.73375 9.44464C9.69283 9.44497 9.67586 9.49719 9.70877 9.52147L9.96302 9.7092L9.86767 10.0105C9.85534 10.0495 9.89973 10.0818 9.93302 10.058L10.1901 9.8742L10.4472 10.058C10.4805 10.0818 10.525 10.0495 10.5126 10.0105L10.4172 9.7092L10.6715 9.52147C10.7044 9.49714 10.6874 9.44497 10.6465 9.44464L10.3305 9.4422L10.2305 9.14239C10.2176 9.10358 10.1627 9.10358 10.1498 9.14239Z" fill="#FFCD5A"/>
<path d="M8.81969 10.4783L8.7197 10.7781L8.40367 10.7806C8.36275 10.7809 8.34578 10.8331 8.37869 10.8574L8.63294 11.0451L8.53759 11.3465C8.52527 11.3855 8.56966 11.4177 8.60294 11.3939L8.86005 11.2101L9.11716 11.3939C9.15044 11.4177 9.19487 11.3855 9.1825 11.3465L9.08716 11.0451L9.34141 10.8574C9.37431 10.8331 9.35734 10.7809 9.31642 10.7806L9.00039 10.7781L8.90041 10.4783C8.88752 10.4395 8.83262 10.4395 8.81969 10.4783Z" fill="#FFCD5A"/>
<path d="M8.33141 12.285L8.23142 12.5848L7.91539 12.5872C7.87447 12.5875 7.8575 12.6398 7.89041 12.664L8.14466 12.8518L8.04931 13.1531C8.03698 13.1921 8.08137 13.2244 8.11466 13.2006L8.37177 13.0168L8.62887 13.2006C8.66216 13.2244 8.70659 13.1921 8.69427 13.1531L8.59892 12.8518L8.85317 12.664C8.88608 12.6398 8.86911 12.5875 8.82819 12.5872L8.51216 12.5848L8.41217 12.285C8.39928 12.2462 8.34439 12.2462 8.33141 12.285Z" fill="#FFCD5A"/>
<path d="M13.8516 9.14239L13.9516 9.4422L14.2676 9.44464C14.3085 9.44497 14.3255 9.49719 14.2926 9.52147L14.0383 9.7092L14.1337 10.0105C14.146 10.0495 14.1016 10.0818 14.0683 10.058L13.8112 9.8742L13.5541 10.058C13.5208 10.0818 13.4764 10.0495 13.4888 10.0105L13.5841 9.7092L13.3299 9.52147C13.297 9.49714 13.3139 9.44497 13.3548 9.44464L13.6709 9.4422L13.7709 9.14239C13.7837 9.10358 13.8386 9.10358 13.8516 9.14239Z" fill="#FFCD5A"/>
<path d="M15.1797 10.4783L15.2797 10.7781L15.5957 10.7806C15.6366 10.7809 15.6536 10.8331 15.6207 10.8574L15.3665 11.0451L15.4618 11.3465C15.4741 11.3855 15.4297 11.4177 15.3965 11.3939L15.1393 11.2101L14.8822 11.3939C14.849 11.4177 14.8045 11.3855 14.8169 11.3465L14.9122 11.0451L14.658 10.8574C14.6251 10.8331 14.642 10.7809 14.683 10.7806L14.999 10.7781L15.099 10.4783C15.1119 10.4395 15.1668 10.4395 15.1797 10.4783Z" fill="#FFCD5A"/>
<path d="M15.668 12.285L15.768 12.5848L16.084 12.5872C16.125 12.5875 16.1419 12.6398 16.109 12.664L15.8548 12.8518L15.9501 13.1531C15.9625 13.1921 15.9181 13.2244 15.8848 13.2006L15.6277 13.0168L15.3706 13.2006C15.3373 13.2244 15.2928 13.1921 15.3052 13.1531L15.4005 12.8518L15.1463 12.664C15.1134 12.6398 15.1303 12.5875 15.1712 12.5872L15.4873 12.5848L15.5873 12.285C15.6002 12.2462 15.655 12.2462 15.668 12.285Z" fill="#FFCD5A"/>
</g>
<defs>
<clipPath id="clip0_3993_1910">
<rect width="24" height="24" rx="12" fill="white"/>
</clipPath>
</defs>
</svg>
